<svg width="52" height="80" viewBox="0 0 52 80" fill="none" xmlns="http://www.w3.org/2000/svg">
<path d="M46.6702 0H44.3535C45.7203 1.19993 46.5703 2.94977 46.5703 4.8998V75.0984C46.5703 77.0484 45.7203 78.7982 44.3535 79.9984H46.6702C49.3701 79.9984 51.5702 77.7983 51.5702 75.0984V4.8998C51.5702 2.19987 49.3701 0 46.6702 0Z" fill="#1D01C8"/>
<path d="M29.4021 10H15.614C15.2613 13.5607 12.4834 16.4002 9 16.7608V63.2542C12.4834 63.6148 15.2598 66.4468 15.614 70H29.4021C29.7549 66.4468 32.5254 63.6148 36 63.2542V16.7608C32.5254 16.3987 29.7534 13.5607 29.4021 10Z" fill="#1D01C8"/>
<path d="M44.9049 4.90749C44.9049 2.19799 42.7085 0.00158691 39.9992 0.00158691H4.9057C2.19641 0.00158691 0 2.19799 0 4.90749V75.0941C0 77.8036 2.19641 80 4.9057 80H39.9992C42.7085 80 44.9049 77.8036 44.9049 75.0941V4.90749ZM39.0652 65.9792C39.0652 66.4398 38.6925 66.8126 38.2318 66.8126C34.6398 66.8126 31.7167 69.7357 31.7167 73.3294C31.7167 73.79 31.344 74.1627 30.8834 74.1627H14.0331C13.5725 74.1627 13.1998 73.79 13.1998 73.3294C13.1998 69.7357 10.2685 66.8126 6.66674 66.8126C6.20613 66.8126 5.83342 66.4398 5.83342 65.9792V14.0304C5.83342 13.5698 6.20613 13.1971 6.66674 13.1971C10.2685 13.1971 13.1998 10.2659 13.1998 6.66405C13.1998 6.20345 13.5725 5.83073 14.0331 5.83073H30.8834C31.344 5.83073 31.7167 6.20345 31.7167 6.66405C31.7167 10.2659 34.6398 13.1971 38.2318 13.1971C38.6925 13.1971 39.0652 13.5698 39.0652 14.0304V65.9792Z" fill="#1D01C8"/>
</svg>
