<svg width="80" height="68" viewBox="0 0 80 68" fill="none" xmlns="http://www.w3.org/2000/svg">
<path d="M40.781 23.3557C42.0862 23.3557 43.1443 22.2976 43.1443 20.9924C43.1443 19.6872 42.0862 18.6292 40.781 18.6292C39.4758 18.6292 38.4177 19.6872 38.4177 20.9924C38.4177 22.2976 39.4758 23.3557 40.781 23.3557Z" fill="#1D01C8"/>
<path d="M30 67.8172C35.0569 67.8172 39.8202 66.5642 43.9994 64.354C41.4292 63.9059 38.9206 63.1676 36.4967 62.1425C32.3656 60.3951 28.6564 57.8947 25.4723 54.7106C22.2883 51.5265 19.7878 47.8173 18.0405 43.6862C16.2303 39.4067 15.3125 34.8636 15.3125 30.1828C15.3125 25.502 16.2303 20.9589 18.0403 16.6793C19.2573 13.8018 20.8409 11.1298 22.7653 8.69653C9.69188 11.9339 0 23.7431 0 37.8172C0 43.2722 1.45641 48.3867 4.00094 52.7942L0.802656 67.0145L15.023 63.8162C19.4305 66.3608 24.545 67.8172 30 67.8172Z" fill="#1D01C8"/>
<path d="M59.6091 42.1838C60.9143 42.1838 61.9724 41.1258 61.9724 39.8206C61.9724 38.5154 60.9143 37.4573 59.6091 37.4573C58.3039 37.4573 57.2458 38.5154 57.2458 39.8206C57.2458 41.1258 58.3039 42.1838 59.6091 42.1838Z" fill="#1D01C8"/>
<path d="M75.9991 45.1599C78.5436 40.7524 80 35.6379 80 30.1829C80 13.6143 66.5686 0.182861 50 0.182861C33.4314 0.182861 20 13.6143 20 30.1829C20 46.7515 33.4314 60.1829 50 60.1829C55.455 60.1829 60.5695 58.7265 64.977 56.1819L79.1973 59.3802L75.9991 45.1599ZM40.7811 13.9416C44.6689 13.9416 47.8319 17.1046 47.8319 20.9924C47.8319 24.8802 44.6689 28.0432 40.7811 28.0432C36.8933 28.0432 33.7303 24.8802 33.7303 20.9924C33.7303 17.1046 36.8933 13.9416 40.7811 13.9416ZM37.7312 46.1849L34.4167 42.8704L62.6589 14.6282L65.9734 17.9427L37.7312 46.1849ZM59.6092 46.8713C55.7214 46.8713 52.5584 43.7083 52.5584 39.8205C52.5584 35.9327 55.7214 32.7697 59.6092 32.7697C63.497 32.7697 66.66 35.9327 66.66 39.8205C66.66 43.7083 63.4969 46.8713 59.6092 46.8713Z" fill="#1D01C8"/>
</svg>
