<svg width="80" height="67" viewBox="0 0 80 67" fill="none" xmlns="http://www.w3.org/2000/svg">
<path d="M74 0H11.3333C8.02531 0 5.33328 2.7055 5.33328 6.03001V8.04001V13.4V18.8284C2.34141 19.166 0 21.6945 0 24.7899V60.97C0 64.2945 2.69203 67 6 67H68.6667C71.9747 67 74.6667 64.2945 74.6667 60.97V48.1716C77.6587 47.834 80 45.3053 80 42.2099V13.4V8.04001V6.03001C80 2.70534 77.308 0 74 0ZM16 58.96H10.6667C8.46141 58.96 6.66672 57.1563 6.66672 54.94C6.66672 52.7236 8.46141 50.92 10.6667 50.92H16C18.2053 50.92 20 52.7236 20 54.94C20 57.1563 18.2053 58.96 16 58.96ZM77.3333 42.2101C77.3333 43.8287 76.1866 45.1808 74.6666 45.4931V24.7901C74.6666 21.4656 71.9745 18.7601 68.6666 18.7601H8V13.4H77.3333V42.2101Z" fill="#1D01C8"/>
</svg>
