<svg width="80" height="81" viewBox="0 0 80 81" fill="none" xmlns="http://www.w3.org/2000/svg">
<path d="M56.6667 60.0259V80.0383H70C75.5228 80.0383 80 75.5584 80 70.0321V39.6099C80.0008 37.8771 79.3278 36.212 78.1233 34.967L49.7967 4.32447C44.7986 -1.08671 36.363 -1.41895 30.9552 3.58229C30.6983 3.81993 30.4508 4.06743 30.2134 4.32447L1.93672 34.957C0.695782 36.2071 -0.000468513 37.8979 2.36536e-07 39.6599V70.0321C2.36536e-07 75.5584 4.47719 80.0383 10 80.0383H23.3333V60.0259C23.3956 50.9308 30.7342 43.5037 39.5947 43.2898C48.7516 43.0687 56.5969 50.6224 56.6667 60.0259Z" fill="#1D01C8"/>
<path d="M40 50.0195C34.4772 50.0195 30 54.4995 30 60.0258V80.0382H50V60.0258C50 54.4995 45.5228 50.0195 40 50.0195Z" fill="#1D01C8"/>
</svg>
